<svg xmlns="http://www.w3.org/2000/svg" xmlns:xlink="http://www.w3.org/1999/xlink" width="64" height="64" viewBox="0 0 64 64"><defs><path id="a" d="M.06 64V.04H64V64z"/></defs><g fill="none" fill-rule="evenodd"><mask id="b" fill="#fff"><use xlink:href="#a"/></mask><path fill="#73BBA3" d="M64 32c0 17.673-14.327 32-32 32C14.327 64 0 49.673 0 32 0 14.327 14.327 0 32 0c17.673 0 32 14.327 32 32" mask="url(#b)"/><path fill="#629986" d="M45 52H15a2 2 0 0 1-2-2v-6h-2a2 2 0 0 1-2-2v-6a2 2 0 0 1 2-2h2v-2 16a2 2 0 0 0 2 2h30a2 2 0 0 0 2-2v2a2 2 0 0 1-2 2m10-4c-1.105 0-4-2-4-2h-4V36h4s2.895-2 4-2a2 2 0 0 1 2 2v10a2 2 0 0 1-2 2"/><path fill="#DEDECA" d="M47 48a2 2 0 0 1-2 2H15a2 2 0 0 1-2-2V32a2 2 0 0 1 2-2h30a2 2 0 0 1 2 2v16"/><path fill="#DEDECA" d="M53 42a2 2 0 0 1-2 2H24a2 2 0 0 1-2-2v-6a2 2 0 0 1 2-2h27a2 2 0 0 1 2 2v6"/><path fill="#DEDECA" d="M40 40a2 2 0 01-2 2H11a2 2 0 01-2-2v-6a2 2 0 012-2h27a2 2 0 012 2v6M57 44a2 2 0 01-2 2c-1.105 0-4-2-4-2V34s2.895-2 4-2a2 2 0 012 2v10"/><path fill="#629986" d="M14.999 30A9.985 9.985 0 0 1 11 22c0-5.523 4.477-10 10-10s10 4.477 10 10a9.985 9.985 0 0 1-3.999 8H14.999"/><path fill="#B3B2A4" d="M21 32a9.955 9.955 0 0 1-6.001-2h12.002A9.955 9.955 0 0 1 21 32"/><path fill="#629986" d="M44.292 30H33.708a8 8 0 1 1 10.584 0"/><path fill="#B3B2A4" d="M39 32a7.97 7.97 0 0 1-5.292-2h10.584A7.97 7.97 0 0 1 39 32"/><path fill="#FFFFFE" d="M31 20c0 5.523-4.477 10-10 10s-10-4.477-10-10 4.477-10 10-10 10 4.477 10 10M47 22a8 8 0 11-16 0 8 8 0 0116 0"/></g></svg>